<svg version="1" xmlns="http://www.w3.org/2000/svg" width="1040" height="1040" viewBox="0 0 780.000000 780.000000"><path d="M640.5 56.9c-13.4 3.3-22.5 18-22.5 36.6 0 7.7-.2 8.8-2.4 11-1.3 1.3-5.5 3.3-9.7 4.5-20.8 6-34.4 11.7-40.7 17-2.4 2-2.1 4.6.4 3.6.8-.3 9.6-1 19.7-1.6 25.6-1.5 33.5-2.7 46.9-7.1 13.2-4.4 15.6-4.6 21.3-2 4.9 2.3 8.1 5.7 8.8 9.5.7 3.9-4.5 29-7.2 34.7-2.6 5.6-7.9 11.1-12.8 13.4-2 1-8.3 2.8-14.2 4.2-5.8 1.4-14.4 3.6-19 5-4.5 1.3-8.6 2.2-8.9 1.9-1.4-1.5 2.1-8.7 5.8-11.9 3.6-3.1 3.8-3.5 2.5-5.3-2.1-2.8-1.9-3.9 1.5-7.7 4.1-4.7 3.8-5.5-1.5-4.9-2.8.3-5 0-6-.8-1.9-1.6-1.9-5.7 0-9 .8-1.4 1.4-4.2 1.5-6.2V138l-4.2 4.6c-3.9 4.2-4.3 4.4-5.5 2.8-1.5-2.1-1.7-5.8-.4-8.3.6-1 .6-2.3 0-3.2-.5-.7-.9-.9-.9-.3 0 .6-1.4 1.7-3 2.4-3.6 1.5-6 4.6-6 7.7 0 2.6-5.5 9.3-7.6 9.3-.9 0-1.4-1.2-1.4-3.5 0-4.4-1.5-4.6-2.4-.3-.4 2.3-2.6 5.2-6.9 9.3-3.5 3.3-7.1 7.2-8 8.7-1 1.6-2.5 2.8-3.4 2.8-1.3 0-1.5-.8-1-4.5.7-4.6.1-7.5-1.4-7.5-.5 0-.9 1.1-.9 2.4 0 1.5-1.1 3.3-3 4.8-1.6 1.2-4.3 3.3-6 4.6-2 1.6-3 3.3-3.1 5v2.7l-1.6-2.3c-1.5-2.1-4.1-3.2-2.8-1.1 1.7 2.7-.6 6-6 8.4-4 1.7-5.6 3-6.1 4.9-.7 3-10.1 11.9-15.3 14.5-2 1-7 2.9-11.1 4.1-9.2 2.7-11.4 3.9-16.5 8.6-7.6 6.9-10.6 7.7-32 7.9-22 .3-29.5 1.6-41.2 7-11.9 5.6-18.1 7.5-24.2 7.5-13.9-.1-21.7-9.6-24.1-29.3-1.2-10.2-4.4-10.2-14.9 0-13.6 13.4-24.1 18-35.3 15.4-12.7-2.8-21.1-13.9-26.7-35.6-2.8-10.5-2.7-15.7.2-19.1 2.1-2.4 3.3-2.7 14-3.8 8.2-.8 12.2-1.7 13.3-2.8 1.5-1.5 1.3-1.9-2.5-4.6-2.3-1.7-4.8-3.3-5.4-3.6-2.4-1 2.2-3.2 10.1-4.9 5-1.1 8.7-2.5 10.3-4l2.4-2.2-5.5-.5c-3-.3-7.1-1.4-9-2.5-2.3-1.3-5.6-1.9-9.7-1.9-3.5-.1-6.3-.4-6.3-.7 0-1 7.9-5 14.2-7 6.1-2 9.8-4.3 9.8-6.1 0-.4-1-.6-2.3-.3-1.3.4-4.9-.4-8.3-1.6-10.3-4-14.3-3.4-29.9 4.6-12.5 6.3-14 6.9-19.8 6.9-7.6 0-14.6-3.3-16.1-7.7-1.3-3.5.8-6.4 9-12.8 5.7-4.4 6-4.9 7.9-12.2 2-7.4 4.5-11.7 7.1-11.7.7 0 1.6-.5 1.9-1 .4-.6-.8-1-2.8-1-2.1 0-5.7 1.5-10.2 4.1-3.7 2.3-13.7 7-22.2 10.4-22.2 9-28.5 13.8-36.2 27.5-4.3 7.6-7.4 10.1-13.5 10.7-4.9.6-23.3-1.8-32.7-4.3-12.7-3.3-16.4-1.4-20.4 10.5-2.4 7.3-3.5 8.9-13.5 20.1-12.1 13.4-16.8 20.4-20 30-2.9 8.2-3.8 24.7-2 32.9 3.8 16.8 14.4 31 35 46.6 17.8 13.5 23.7 21.5 24.7 33.7l.5 6.3-2.4-3.5c-2.6-3.9-7.1-5.9-13.5-5.9-5.6-.1-8.9-1.5-13.5-5.6-2.1-1.9-4.3-3.5-5-3.5-1.7 0-27.2 25.5-32.9 33-2.8 3.6-7.4 11.4-10.3 17.4-5.3 10.8-5.3 10.9-6.4 7.8-.8-2.4-.6-4.3 1-9.4 3.4-10.6 2.3-41-1.7-47.2-2.4-3.7-6.3-5-9.2-3.1-2.3 1.5-4.3 5.2-4.3 7.9 0 .7 2 4.4 4.5 8.1 7.9 12.1 8 19.2.3 35.8-5.3 11.7-5.1 14.9 2.5 30 3 6.2 5.9 12.5 6.4 14.2.6 2.3 1.5 3.1 3.6 3.3 2.4.3 3-.2 4.7-4 3.7-8.4 9.3-10.7 12.1-5 5.8 11.5 9.5 16.3 15.9 21.1 8 6 13.1 12 16.8 19.8 2.5 5.4 2.7 6.6 2.6 19.3-.1 15.1-1.1 18.8-5.7 20.4-4.5 1.6-7.8-.9-10.7-8.1-3.1-7.7-5.6-10.5-12-13.8-7.6-3.9-19.6-6.3-39.7-7.9-10-.9-22.5-2.5-27.7-3.7-7.8-1.8-9.8-2-11.1-.9-2.2 1.9-1.8 3.9 1 5 1.4.5 9.4 2.6 17.8 4.6 19.3 4.6 23.8 7.2 15.4 8.9-1.7.4-8.8 2.2-15.7 4.1-6.9 1.8-16.1 3.7-20.4 4.1-8.3.8-10.6 2.3-9.2 5.8.5 1.5 1.5 1.7 5.9 1.2 27.8-3.1 26.6-3.1 28.7-1.2 2.5 2.3 2.5 4.6-.1 12-1.2 3.3-2.4 8.8-2.6 12.2-.5 5.6-.3 6.4 2 8.7 1.4 1.4 3.8 2.8 5.4 3.2 6.1 1.5 6.8 4.7 2.8 13.2-3.2 7-3.2 9 .7 14.3 7.3 10.2 20.5 21.5 34 29.2 2.6 1.5 5.4 3.7 6.3 4.9 2.2 3.2 2 12.5-.4 16.5-2.5 4-7.4 5.1-27.1 6.2-15.1.9-17.8 1.6-30.2 7.3-6.8 3.1-8.5 4.8-4.9 4.8 1.1 0 12.7-1.1 25.8-2.5 32-3.3 32.2-3.3 34.4-2.8 2.6.7 2.4 2.7-1 7.6-4.7 6.9-8.1 14.4-13.8 30.1-7.6 21.2-7.2 22.2 3.2 8.1 6.7-9 11.2-17 13.4-23.6 1.4-4.4 7.4-10.4 9.5-9.6 2 .8 2 2.9 0 11.4-1.9 8-1.5 31.4.6 35.2 2.2 4.3 3.6.3 7.5-22.4 3.4-20 5.8-29.6 7-28.4.2.3 3.1 10.5 6.3 22.7 3.3 12.3 6.2 22.6 6.5 22.9.4.3 1.4.3 2.3-.1 1.5-.6 1.6-2.2 1.1-15.4-.3-8.1-1.1-17.3-1.8-20.4-.6-3.1-.9-6.8-.5-8.3.6-2.2.9-2.4 2.7-1.5 1.1.6 2.7 3 3.6 5.3 4.1 10.3 10.5 21.6 14.9 26.2 2.6 2.7 4.9 4.4 5.2 3.7.2-.6-3.1-9.9-7.2-20.6-4.2-10.7-7.6-20.4-7.6-21.6 0-2.7 2.3-3.5 6-2 4.1 1.7 4.9 3.5 4.3 9.5-1.5 14.9 9.4 28 24.9 30.1 2.6.4 4.5 1 4.2 1.5-.2.4-3.1 2.2-6.3 3.9-6.8 3.6-13.2 9.7-15.6 14.6l-1.6 3.4H0v126h780V654H245.2l-1.2-6.6c-2.3-11.9-1.2-16.4 8.2-35 4.5-9.1 9.1-18 10-19.7 2.2-4 2.3-9.6.2-20.6-2.5-13.2-.6-19.3 7.2-24.2 2.5-1.5 4.4-3.9 6-7.5 2.4-5.4 4.8-7.5 7.4-6.6.8.3 3.7 2 6.4 3.9 12.6 8.6 31.3 8.2 43.8-.9 3.1-2.2 3.2.2.2 4.5-1.6 2.3-4.6 5.1-6.6 6.2-5.8 3.1-6.5 5.2-4.4 14 1 4.2 2.4 8.2 3.2 9 .8.7 5.2 2.5 9.9 4 9.4 2.8 11.6 4.6 20.5 16.4 8.7 11.5 22.3 22.1 41.2 32.1 6.9 3.7 10.4 5 13.6 5 5.9 0 5.2-2.9-1.1-4.5-3.7-1-6.3-4.5-7.1-9.7-.4-2.4-1.4-5.3-2.2-6.6-1.4-2.1-1.2-2.5 3.6-7.6 2.8-3 5.5-7 6.1-8.9 1.1-4 3.7-5.4 7-3.6 1.4.7 4.2.9 7.8.5 3.1-.4 8.2-.9 11.4-1.2 3.5-.4 5.7-1.1 5.7-1.9 0-.6-4.2-3.1-9.2-5.4-5.1-2.4-10-4.6-10.8-5-.8-.5-2-2.8-2.6-5.2-.7-2.4-1.5-5.1-1.9-6-.4-1 0-1.9.9-2.2.9-.4 1.6-1.6 1.6-2.7 0-1.4.7-2 2.2-2 1.2 0 4.5-.8 7.4-1.7 4.6-1.4 5.9-1.5 9.6-.3 2.4.7 5.5 2.4 7 3.8 3.1 2.8 4.8 2.2 4.8-1.8 0-2.3.6-3 3.1-3.9 5-1.7 6.4-1.4 11.9 3.2 9.1 7.3 12.3 9.3 19.6 12.1 7.8 2.9 11.5 6.1 13.9 12.1 2.3 5.6 5.8 9.9 11.7 14.5 5 4.1 7.7 4.5 5.8 1-1.8-3.3-1.1-6.6 2.3-11.1 1.7-2.4 4.1-6.2 5.2-8.4 2.3-4.5 3.1-4.7 15.4-3.2 5 .7 6.2.6 5.9-.5-.5-1.4-1.5-2-12.7-7.2-7.4-3.4-7.5-3.5-4.8-4.7 3.3-1.5 3.4-3.1.6-6.9-2.9-3.8-2.9-10.9 0-22.9 2.3-9.7 2.2-15.2-.4-18.7-1.1-1.6-.9-2.1 1.2-3.8 2.2-1.6 2.3-2 .9-2.8-2.2-1.2-2-2.8.3-2.8 1 0 2.5-.7 3.2-1.6 1.1-1.4 1-1.8-1-3.3-2-1.5-2.2-2.1-1.2-3.9 3.4-6.3 0-5.4-8.9 2.5-12.1 10.6-15.1 11.6-40.5 13.3-7.7.5-15.9 1.6-18.3 2.4l-4.3 1.5-1-2.6c-.5-1.5-.8-3.2-.5-3.8.3-.8 5.1-1.4 14.3-1.8 30-1.3 41.7-8.7 54.6-34.5 4.3-8.6 6.7-14.9 7.2-18.4 1-7.1 2.9-11.5 5.4-12.3 1.6-.5 11 2.7 14.9 5 .1.1-1 2.9-2.5 6.1-3.2 7.1-3.5 13.9-.8 26.4 2.3 10.7 2.3 22.1.1 25.5-2.2 3.4-5.3 3.2-7.4-.5-2.2-3.9-3.2-3.8-3.2.4 0 2.6 1.1 4.7 4.4 8.6 3 3.5 4.6 6.4 5 9.3.4 2.2 1.6 6.1 2.6 8.5 2.9 6.6 11.9 18.2 14 18.2 1 0 5.1-1.4 9.1-3.1 11.4-4.8 11.3-4.8 16.3.6 3.9 4.3 4.6 4.7 7.7 4.2 2.3-.4 4.1-.1 5.3.8 1.3.9 4.3 1.5 8.1 1.5 3.7 0 6.9.6 8.2 1.5 1.8 1.3 2.2 1.3 3.3 0 .7-.9 2.9-1.5 5.3-1.5 2.7 0 4.8-.7 6.3-2.1 2-1.9 2.6-1.9 8.1-.8 7.3 1.5 10.6.7 14.1-3.3 1.5-1.8 5.1-5.8 8-8.9 2.8-3.1 5.2-5.9 5.2-6.2 0-.4-3.5-.7-7.8-.7-9 0-18-2.1-23.7-5.5-5.3-3.1-11.5-8.9-11.5-10.7 0-.8 2.4-3.1 5.4-5.2 6.7-4.6 14.3-12.6 17.9-18.7 1.5-2.6 4.2-10.6 6.1-18.5 7.4-29.5 13.3-42 26.1-55.4 7.6-8 8.5-9.6 8.5-15.7s-1.6-9.2-6-11.7c-3-1.8-5.3-2.1-15.5-2.2-6.6-.1-12.5-.2-13.2-.3-.7 0-1.7-2-2.4-4.4-1.9-7.2-7.2-16-13.4-22.2-9.8-9.8-23.2-15.2-49.5-20-17-3.1-53-3.1-60.2 0-3.1 1.3-3-2 .3-10.4 3.3-8.5 9-16.1 13.8-18.5 1.5-.8 4.5-1.7 6.6-2.1 7.7-1.2 8.5-1.6 9.9-4.3 1.9-3.8.6-6.6-4.1-8.5-5.1-2-6.6-3.9-6.6-8.5 0-4.9 2.4-9.4 6.5-12.4 2.8-1.9 4.5-2.3 11.1-2.3 7.3 0 7.7-.1 7.7-2.3 0-2.2.1-2.2 3.1-.7 3.8 2 4.7 1.3 2.5-2-1.6-2.5-1.6-2.5 1.4-2.5 4.1 0 3.8-1.1-1.5-4.8-2.5-1.7-4.5-4-4.5-4.9 0-1 2.6-3.9 5.8-6.4 10.2-8.3 12-9 24.8-10 13.5-1.1 14.4-.8 14.4 5.8 0 8-4.4 13.4-15.1 18.2-3.6 1.6-7.1 3.7-7.9 4.6-3.5 4.2.9 14.7 7.5 18 3.4 1.7 6 2 16.5 2 7 0 15.6-.7 19.5-1.5 3.9-.8 10.9-1.4 15.8-1.5 5 0 8.7-.4 8.8-1 .1-.6.2-2.1.2-3.5.3-3.6 3.4-3.9 4.3-.3.4 1.5 1.1 3.6 1.6 4.7 1.4 2.6 2.8.3 2.8-4.4 0-6.9 2-10.5 12.9-23.3 8.8-10.3 11.4-14 13.6-19.8 2.9-7.4 6.4-12.4 9.4-13.4 2.4-.7 3.4-5.2 1.4-6-.8-.3-1.9-.2-2.4.1-1.6.9-5.6-.4-6.3-2.2-.3-.8.1-4.8 1-8.7 1.4-5.8 1.6-10.1 1-22.4L708 168l4.1-7.8c7.6-14.6 6.2-24.7-5.1-37.8-7.9-9-8.3-10.8-3.8-14.8 2-1.7 5.4-4.2 7.7-5.6 6.7-4 13.6-16.3 14.8-26.6.8-6.7-1.1-7.4-19.2-7.4-11.5 0-16.9-.5-23.3-2-12.4-3-16.1-2.7-21.2 1.5-4.9 4.1-6.1 4.2-10.7 1.4-2.7-1.7-3.3-2.7-3.1-4.8.3-2.4.6-2.6 5.2-2.5 4.8 0 4.9 0 2.7-1.8-2.3-1.8-8.4-3.9-11.1-3.7-.8.1-2.8.4-4.5.8zM687.3 79c2.2 0-1.7 2-4 2-3 0-5.3-2.6-5.3-6.2v-3l4 3.6c2.2 2 4.6 3.6 5.3 3.6zm-462.7 84.5c10.6 6.4 22.2 8.5 35.8 6.6 4.4-.6 8.3-.8 8.8-.3.4.4.5 3.1.1 6-.5 4.6-.8 5.2-2.9 5.2-1.6 0-2.5.7-2.9 2.2-.9 4.5-1 12.5-.1 23.9 1 13.6.2 17.1-5.2 23.1-5 5.5-10.4 8-18.5 8.6-6.6.5-6.8.6-6.3 2.8.7 2.7-.4 3-3.7 1.2-1.2-.6-6.1-1.5-10.9-1.8-12.3-.9-13.4-2.1-14.2-14.3-.3-5.1-.9-11.9-1.2-15.2-.7-7.3.5-13.4 5.7-27.2 2.2-5.7 4.5-13.5 5.1-17.3 1.4-8.3 2-8.5 10.4-3.5zm-70 164.9c1.2 3 1.4 5.8.9 11.2-.8 8-1.7 9.3-7.7 11.8-2 .9-6.3 3.4-9.4 5.6-6.5 4.5-10.8 6-17.6 6-5.9 0-8.1-2.6-7.6-9.2.3-3.9.6-4.4 3.8-5.4 3.6-1.2 5.3-3.4 2.6-3.4-1.7 0-1.7-.4.6-9.4.5-2.1 1.9-4.8 3.1-6 1.2-1.2 3-3.4 4-4.9 2.2-3.4 3.2-3.4 7.4.3 4.5 4 7.9 3.9 13.4-.4 3.6-2.7 4.5-3.1 4.7-1.7.2.9 1 3.4 1.8 5.5zm-63.1 24.7c1 1.6-.4 6.1-1.8 5.6-1.5-.5-3.8-4.8-3.1-5.9.7-1.2 4.2-1 4.9.3zm80.9 3.5c1.4.5 1 1.4-2.1 4.8-2.1 2.3-6 6.8-8.6 9.9-5.2 6.2-8.2 8.1-14 9.2-3.3.7-3.7.5-3.7-1.4 0-3.3 2.5-6.5 9.8-12.4 6.3-5.1 14.9-10.7 16.4-10.7.3 0 1.4.3 2.2.6zm77.5 8.3c1.5 2.6-.5 3.2-6 1.8l-4.4-1.1 3-1.2c4.2-1.8 6.3-1.7 7.4.5zM197 366c2.2 1.1 6.2 2.5 9 3.1 4.8 1 5 1.2 3.6 2.8-1.9 2.1-2 4.6-.4 10.5 1 3.8.9 5.2-.7 10-1.8 5.4-1.8 5.6 0 7.6 2.1 2.4 5.2 2.5 11.9.5 6.1-1.9 7.6-.9 7.6 5.1 0 3.8-.3 4.4-2.5 5-1.4.3-2.5.8-2.5 1 0 .9 7.3 6.9 10.4 8.6 1.7.9 5.2 1.7 7.8 1.8 3.6 0 4.8.4 5.3 1.8.3 1.1 2.3 3.3 4.5 5.1 2.2 1.8 4 4 4 5 0 .9.7 4.2 1.6 7.2 1.2 4.2 2.8 6.5 7.1 10.7 4.9 4.6 5.4 5.5 4.2 6.8-2 1.9-17.3.4-38.7-3.7-25.6-4.9-29.3-5.2-34.1-3.3-5.6 2.2-9.2 6.7-15.3 18.7-7.7 15.4-14.4 27-17.1 29.5-2.2 2.1-2.4 2.1-3.9.5-2.2-2.6-5.8-15.3-5.8-20.6 0-2.5 1.6-9.6 3.7-15.9 3.1-9.8 3.6-12.5 3.6-20.8-.1-5.6-.9-13.8-2.2-20-1.2-5.8-2.4-13.9-2.8-18.1-.5-6.6-.3-8.3 1.6-12.2 3.2-6.5 22.3-24.9 28.1-27 6-2.1 7.4-2 12 .3zm-89.1 151.9c5.3 3.4 8.6 7.2 11.9 13.6 2.3 4.6 5.3 6.6 13.4 8.9 3.2.9 7.4 3 9.3 4.8 3.8 3.3 11.5 17.8 11.5 21.7 0 1.9-.4 2.2-2.7 1.7-1.6-.2-5.9-.8-9.7-1.1-13.9-1.4-25.7-7.6-37-19.5-7.9-8.4-14.4-20.8-15.3-29.2-.9-8.9-.5-9.2 7.1-6.4 3.5 1.2 8.7 3.7 11.5 5.5zm402.7 37.5c3.1 2.3 1.2 2.6-3.1.6-3.6-1.6-3.7-1.8-1.4-1.9 1.4-.1 3.4.5 4.5 1.3zm-359 21.6c1.7 0 1.9 4.1.3 5.7-2 2-9.9-1.5-9.9-4.3 0-1.3 4.3-2.4 6.8-1.7.8.1 2 .3 2.8.3zM389 590.2c0 1-3.6-.7-4.5-2.2-.4-.6.5-.5 1.9.2 1.4.6 2.6 1.5 2.6 2z"/></svg>